<svg width="65" height="65" viewBox="0 0 65 65" fill="none" xmlns="http://www.w3.org/2000/svg">
<g clip-path="url(#clip0_62_2036)">
<g clip-path="url(#clip1_62_2036)">
<path fill-rule="evenodd" clip-rule="evenodd" d="M46.58 0.5H18.42C8.5224 0.5 0.5 8.5224 0.5 18.42V46.58C0.5 56.4776 8.5224 64.5 18.42 64.5H46.58C56.4776 64.5 64.5 56.4776 64.5 46.58V18.42C64.5 8.5224 56.4776 0.5 46.58 0.5ZM60.2184 31.5336L56.02 47.1976C54.8648 51.5048 51.5016 54.868 47.1944 56.0232L31.5304 60.2216C27.2232 61.3768 22.628 60.1448 19.476 56.9928L8.0104 45.5272C4.8584 42.3752 3.6264 37.78 4.7816 33.4728L8.98 17.8088C10.1352 13.5016 13.4984 10.1384 17.8056 8.9832L33.4696 4.7848C37.7768 3.6296 42.372 4.8616 45.524 8.0136L56.9896 19.4792C60.1416 22.6312 61.3736 27.2264 60.2184 31.5336Z" fill="white"/>
<path fill-rule="evenodd" clip-rule="evenodd" d="M48.5962 39.3827H39.1594V21.2515C39.1594 20.3843 38.9098 19.5139 38.4138 18.7683C37.793 17.7763 36.6762 17.2803 35.4346 17.2803C34.689 17.2803 33.9434 17.5299 33.3226 17.9011C32.8266 18.2755 32.2442 18.8035 31.8346 19.7635C28.0394 16.5123 21.409 16.9987 18.4234 18.3971C17.3066 18.8931 16.481 19.3955 15.4442 20.3843C13.8282 22.1251 12.9994 24.1667 13.057 26.6435C13.1114 28.8803 14.1162 31.5843 18.5482 33.2995C19.1658 33.5459 20.0298 33.7955 20.897 34.0419H20.9066C21.2906 34.1731 21.7322 34.2915 22.193 34.4163C22.625 34.5315 23.0762 34.6531 23.5146 34.7907C23.5658 34.8067 23.617 34.8227 23.6746 34.8387C24.5546 35.1075 26.097 35.5811 26.0458 37.1299C26.0202 37.9619 25.4826 38.6499 24.7594 39.0115C23.2682 39.7571 21.4058 39.3827 20.0394 38.8867L17.8026 38.1411C13.2458 36.8835 11.9786 40.3331 13.0826 42.2371C14.2058 44.1731 16.8106 45.2195 18.9194 45.5907C20.641 45.9715 23.1914 46.2051 25.2234 45.9363C27.4826 45.6323 30.2122 44.5539 31.7098 42.4867C32.2058 44.7235 34.0682 45.9651 36.1802 45.9651H48.5994C49.841 45.9651 51.2074 45.3443 51.953 44.2275C52.5738 42.9859 52.3242 41.4947 51.4538 40.4995C50.7082 39.7539 49.5946 39.3827 48.5994 39.3827H48.5962ZM31.7098 31.1875C29.2266 28.8003 22.769 27.4627 22.769 27.4627C20.5482 26.9155 20.5322 25.8467 20.5322 25.6003C20.4394 25.0019 20.9258 23.9235 22.4746 23.7827C23.537 23.5715 24.8362 23.8659 25.9434 24.1155C26.1322 24.1571 26.3146 24.1987 26.4906 24.2371C26.8138 24.3075 27.1274 24.3939 27.441 24.4771C28.1354 24.6691 28.8266 24.8579 29.5978 24.8579C30.4106 24.8675 31.297 24.5187 31.7066 23.9875V31.1907L31.7098 31.1875Z" fill="white"/>
</g>
</g>
<defs>
<clipPath id="clip0_62_2036">
<rect width="64" height="64" fill="white" transform="translate(0.5 0.5)"/>
</clipPath>
<clipPath id="clip1_62_2036">
<rect width="64" height="64" fill="white" transform="translate(0.5 0.5)"/>
</clipPath>
</defs>
</svg>
